<?xml version="1.0" encoding="UTF-8" standalone="no"?>
<!DOCTYPE svg PUBLIC "-//W3C//DTD SVG 1.1//EN"
 "http://www.w3.org/Graphics/SVG/1.1/DTD/svg11.dtd">
<!-- Generated by graphviz version 9.0.0 (20230911.1827)
 -->
<!-- Pages: 1 -->
<svg width="1330pt" height="1544pt"
 viewBox="0.00 0.00 1330.22 1544.00" xmlns="http://www.w3.org/2000/svg" xmlns:xlink="http://www.w3.org/1999/xlink">
<g id="graph0" class="graph" transform="scale(1 1) rotate(0) translate(4 1540)">
<polygon fill="white" stroke="none" points="-4,4 -4,-1540 1326.22,-1540 1326.22,4 -4,4"/>
<text text-anchor="start" x="636.37" y="-592.4" font-family="Bitstream Vera Sans" font-weight="bold" font-size="8.00">Namespaces</text>
<text text-anchor="start" x="538.12" y="-576.4" font-family="Bitstream Vera Sans" font-size="8.00">brick:</text>
<text text-anchor="start" x="577.12" y="-576.4" font-family="Bitstream Vera Sans" font-size="8.00">https://brickschema.org/schema/Brick#</text>
<text text-anchor="start" x="538.12" y="-561.4" font-family="Bitstream Vera Sans" font-size="8.00">csvw:</text>
<text text-anchor="start" x="577.12" y="-561.4" font-family="Bitstream Vera Sans" font-size="8.00">http://www.w3.org/ns/csvw#</text>
<text text-anchor="start" x="538.12" y="-546.4" font-family="Bitstream Vera Sans" font-size="8.00">dc:</text>
<text text-anchor="start" x="577.12" y="-546.4" font-family="Bitstream Vera Sans" font-size="8.00">http://purl.org/dc/elements/1.1/</text>
<text text-anchor="start" x="538.12" y="-531.4" font-family="Bitstream Vera Sans" font-size="8.00">dcam:</text>
<text text-anchor="start" x="577.12" y="-531.4" font-family="Bitstream Vera Sans" font-size="8.00">http://purl.org/dc/dcam/</text>
<text text-anchor="start" x="538.12" y="-516.4" font-family="Bitstream Vera Sans" font-size="8.00">dcat:</text>
<text text-anchor="start" x="577.12" y="-516.4" font-family="Bitstream Vera Sans" font-size="8.00">http://www.w3.org/ns/dcat#</text>
<text text-anchor="start" x="537.75" y="-501.4" font-family="Bitstream Vera Sans" font-size="8.00">dcmitype:</text>
<text text-anchor="start" x="577.12" y="-501.4" font-family="Bitstream Vera Sans" font-size="8.00">http://purl.org/dc/dcmitype/</text>
<text text-anchor="start" x="538.12" y="-486.4" font-family="Bitstream Vera Sans" font-size="8.00">dcterms:</text>
<text text-anchor="start" x="577.12" y="-486.4" font-family="Bitstream Vera Sans" font-size="8.00">http://purl.org/dc/terms/</text>
<text text-anchor="start" x="538.12" y="-471.4" font-family="Bitstream Vera Sans" font-size="8.00">doap:</text>
<text text-anchor="start" x="577.12" y="-471.4" font-family="Bitstream Vera Sans" font-size="8.00">http://usefulinc.com/ns/doap#</text>
<text text-anchor="start" x="538.12" y="-456.4" font-family="Bitstream Vera Sans" font-size="8.00">foaf:</text>
<text text-anchor="start" x="577.12" y="-456.4" font-family="Bitstream Vera Sans" font-size="8.00">http://xmlns.com/foaf/0.1/</text>
<text text-anchor="start" x="538.12" y="-441.4" font-family="Bitstream Vera Sans" font-size="8.00">geo:</text>
<text text-anchor="start" x="577.12" y="-441.4" font-family="Bitstream Vera Sans" font-size="8.00">http://www.opengis.net/ont/geosparql#</text>
<text text-anchor="start" x="538.12" y="-426.4" font-family="Bitstream Vera Sans" font-size="8.00">ns1:</text>
<text text-anchor="start" x="577.12" y="-426.4" font-family="Bitstream Vera Sans" font-size="8.00">http://example.org/my_vis#</text>
<text text-anchor="start" x="538.12" y="-411.4" font-family="Bitstream Vera Sans" font-size="8.00">ns2:</text>
<text text-anchor="start" x="577.12" y="-411.4" font-family="Bitstream Vera Sans" font-size="8.00">http://sbolstandard.org/testfiles/</text>
<text text-anchor="start" x="538.12" y="-396.4" font-family="Bitstream Vera Sans" font-size="8.00">ns3:</text>
<text text-anchor="start" x="577.12" y="-396.4" font-family="Bitstream Vera Sans" font-size="8.00">http://sbolstandard.org/testfiles/in_silico_restriction/</text>
<text text-anchor="start" x="538.12" y="-381.4" font-family="Bitstream Vera Sans" font-size="8.00">ns4:</text>
<text text-anchor="start" x="577.12" y="-381.4" font-family="Bitstream Vera Sans" font-size="8.00">http://sbolstandard.org/testfiles/parent/</text>
<text text-anchor="start" x="538.12" y="-366.4" font-family="Bitstream Vera Sans" font-size="8.00">ns5:</text>
<text text-anchor="start" x="576.75" y="-366.4" font-family="Bitstream Vera Sans" font-size="8.00">http://sbolstandard.org/testfiles/parent/SequenceFeature1/</text>
<text text-anchor="start" x="538.12" y="-351.4" font-family="Bitstream Vera Sans" font-size="8.00">ns6:</text>
<text text-anchor="start" x="577.12" y="-351.4" font-family="Bitstream Vera Sans" font-size="8.00">http://sbolstandard.org/</text>
<text text-anchor="start" x="538.12" y="-336.4" font-family="Bitstream Vera Sans" font-size="8.00">ns7:</text>
<text text-anchor="start" x="577.12" y="-336.4" font-family="Bitstream Vera Sans" font-size="8.00">https://identifiers.org/SBO:</text>
<text text-anchor="start" x="538.12" y="-321.4" font-family="Bitstream Vera Sans" font-size="8.00">ns8:</text>
<text text-anchor="start" x="577.12" y="-321.4" font-family="Bitstream Vera Sans" font-size="8.00">https://identifiers.org/SO:</text>
<text text-anchor="start" x="538.12" y="-306.4" font-family="Bitstream Vera Sans" font-size="8.00">ns9:</text>
<text text-anchor="start" x="577.12" y="-306.4" font-family="Bitstream Vera Sans" font-size="8.00">https://identifiers.org/edam:</text>
<text text-anchor="start" x="538.12" y="-291.4" font-family="Bitstream Vera Sans" font-size="8.00">odrl:</text>
<text text-anchor="start" x="577.12" y="-291.4" font-family="Bitstream Vera Sans" font-size="8.00">http://www.w3.org/ns/odrl/2/</text>
<text text-anchor="start" x="538.12" y="-276.4" font-family="Bitstream Vera Sans" font-size="8.00">org:</text>
<text text-anchor="start" x="577.12" y="-276.4" font-family="Bitstream Vera Sans" font-size="8.00">http://www.w3.org/ns/org#</text>
<text text-anchor="start" x="538.12" y="-261.4" font-family="Bitstream Vera Sans" font-size="8.00">owl:</text>
<text text-anchor="start" x="577.12" y="-261.4" font-family="Bitstream Vera Sans" font-size="8.00">http://www.w3.org/2002/07/owl#</text>
<text text-anchor="start" x="538.12" y="-246.4" font-family="Bitstream Vera Sans" font-size="8.00">prof:</text>
<text text-anchor="start" x="577.12" y="-246.4" font-family="Bitstream Vera Sans" font-size="8.00">http://www.w3.org/ns/dx/prof/</text>
<text text-anchor="start" x="538.12" y="-231.4" font-family="Bitstream Vera Sans" font-size="8.00">prov:</text>
<text text-anchor="start" x="577.12" y="-231.4" font-family="Bitstream Vera Sans" font-size="8.00">http://www.w3.org/ns/prov#</text>
<text text-anchor="start" x="538.12" y="-216.4" font-family="Bitstream Vera Sans" font-size="8.00">qb:</text>
<text text-anchor="start" x="577.12" y="-216.4" font-family="Bitstream Vera Sans" font-size="8.00">http://purl.org/linked&#45;data/cube#</text>
<text text-anchor="start" x="538.12" y="-201.4" font-family="Bitstream Vera Sans" font-size="8.00">rdf:</text>
<text text-anchor="start" x="577.12" y="-201.4" font-family="Bitstream Vera Sans" font-size="8.00">http://www.w3.org/1999/02/22&#45;rdf&#45;syntax&#45;ns#</text>
<text text-anchor="start" x="538.12" y="-186.4" font-family="Bitstream Vera Sans" font-size="8.00">rdfs:</text>
<text text-anchor="start" x="577.12" y="-186.4" font-family="Bitstream Vera Sans" font-size="8.00">http://www.w3.org/2000/01/rdf&#45;schema#</text>
<text text-anchor="start" x="538.12" y="-171.4" font-family="Bitstream Vera Sans" font-size="8.00">sbol:</text>
<text text-anchor="start" x="577.12" y="-171.4" font-family="Bitstream Vera Sans" font-size="8.00">http://sbols.org/v3#</text>
<text text-anchor="start" x="538.12" y="-156.4" font-family="Bitstream Vera Sans" font-size="8.00">schema:</text>
<text text-anchor="start" x="577.12" y="-156.4" font-family="Bitstream Vera Sans" font-size="8.00">https://schema.org/</text>
<text text-anchor="start" x="538.12" y="-141.4" font-family="Bitstream Vera Sans" font-size="8.00">sh:</text>
<text text-anchor="start" x="577.12" y="-141.4" font-family="Bitstream Vera Sans" font-size="8.00">http://www.w3.org/ns/shacl#</text>
<text text-anchor="start" x="538.12" y="-126.4" font-family="Bitstream Vera Sans" font-size="8.00">skos:</text>
<text text-anchor="start" x="577.12" y="-126.4" font-family="Bitstream Vera Sans" font-size="8.00">http://www.w3.org/2004/02/skos/core#</text>
<text text-anchor="start" x="538.12" y="-111.4" font-family="Bitstream Vera Sans" font-size="8.00">sosa:</text>
<text text-anchor="start" x="577.12" y="-111.4" font-family="Bitstream Vera Sans" font-size="8.00">http://www.w3.org/ns/sosa/</text>
<text text-anchor="start" x="538.12" y="-96.4" font-family="Bitstream Vera Sans" font-size="8.00">ssn:</text>
<text text-anchor="start" x="577.12" y="-96.4" font-family="Bitstream Vera Sans" font-size="8.00">http://www.w3.org/ns/ssn/</text>
<text text-anchor="start" x="538.12" y="-81.4" font-family="Bitstream Vera Sans" font-size="8.00">time:</text>
<text text-anchor="start" x="577.12" y="-81.4" font-family="Bitstream Vera Sans" font-size="8.00">http://www.w3.org/2006/time#</text>
<text text-anchor="start" x="538.12" y="-66.4" font-family="Bitstream Vera Sans" font-size="8.00">vann:</text>
<text text-anchor="start" x="577.12" y="-66.4" font-family="Bitstream Vera Sans" font-size="8.00">http://purl.org/vocab/vann/</text>
<text text-anchor="start" x="538.12" y="-51.4" font-family="Bitstream Vera Sans" font-size="8.00">void:</text>
<text text-anchor="start" x="577.12" y="-51.4" font-family="Bitstream Vera Sans" font-size="8.00">http://rdfs.org/ns/void#</text>
<text text-anchor="start" x="538.12" y="-36.4" font-family="Bitstream Vera Sans" font-size="8.00">wgs:</text>
<text text-anchor="start" x="577.12" y="-36.4" font-family="Bitstream Vera Sans" font-size="8.00">https://www.w3.org/2003/01/geo/wgs84_pos#</text>
<text text-anchor="start" x="538.12" y="-21.4" font-family="Bitstream Vera Sans" font-size="8.00">xml:</text>
<text text-anchor="start" x="577.12" y="-21.4" font-family="Bitstream Vera Sans" font-size="8.00">http://www.w3.org/XML/1998/namespace</text>
<text text-anchor="start" x="538.12" y="-6.4" font-family="Bitstream Vera Sans" font-size="8.00">xsd:</text>
<text text-anchor="start" x="577.12" y="-6.4" font-family="Bitstream Vera Sans" font-size="8.00">http://www.w3.org/2001/XMLSchema#</text>
<polygon fill="none" stroke="black" points="533.12,0 533.12,-604 789.12,-604 789.12,0 533.12,0"/>
<g id="clust1" class="cluster">
<title>cluster_file___example1_ttl</title>
<polygon fill="none" stroke="black" points="20,-689.5 20,-1536 1021,-1536 1021,-689.5 20,-689.5"/>
<text text-anchor="middle" x="520.5" y="-1524.4" font-family="Bitstream Vera Sans" font-size="8.00">file://example1.ttl</text>
</g>
<!-- ns2_api -->
<g id="node1" class="node">
<title>ns2_api</title>
<polygon fill="none" stroke="black" points="27.62,-1071 27.62,-1187 410.38,-1187 410.38,-1071 27.62,-1071"/>
<text text-anchor="start" x="114" y="-1170.7" font-family="Times,serif" font-weight="bold" text-decoration="underline" font-size="14.00"><a xlink:href='http://sbolstandard.org/testfiles/api'>ns2:api</a> (<a xlink:href='http://sbols.org/v3#TopLevel'>sbol:TopLevel</a>, <a xlink:href='http://www.w3.org/ns/prov#Agent'>prov:Agent</a>)</text>
<polyline fill="none" stroke="black" points="27.62,-1162.5 410.37,-1162.5"/>
<text text-anchor="start" x="35.62" y="-1145.2" font-family="Times,serif" font-size="14.00"><a xlink:href='http://example.org/my_vis#api_url'>ns1:api_url</a> = http://example.org/api</text>
<text text-anchor="start" x="35.62" y="-1128.7" font-family="Times,serif" font-size="14.00"><a xlink:href='http://example.org/my_vis#api_version'>ns1:api_version</a> = 1.0</text>
<text text-anchor="start" x="35.62" y="-1112.2" font-family="Times,serif" font-size="14.00"><a xlink:href='http://example.org/my_vis#request_method'>ns1:request_method</a> = POST</text>
<text text-anchor="start" x="35.62" y="-1095.7" font-family="Times,serif" font-size="14.00"><a xlink:href='http://sbols.org/v3#description'>sbol:description</a> = Receives input seq and activity and returns child</text>
<text text-anchor="start" x="35.62" y="-1079.2" font-family="Times,serif" font-size="14.00"><a xlink:href='http://sbols.org/v3#displayId'>sbol:displayId</a> = api</text>
</g>
<!-- ns6_testfiles -->
<g id="node11" class="node">
<title>ns6_testfiles</title>
<polygon fill="none" stroke="black" points="470.75,-608 470.75,-645 551.25,-645 551.25,-608 470.75,-608"/>
<text text-anchor="middle" x="511" y="-621.45" font-family="Times,serif" font-size="14.00"><a xlink:href='http://sbolstandard.org/testfiles'>ns6:testfiles</a></text>
</g>
<!-- ns2_api&#45;&gt;ns6_testfiles -->
<g id="edge13" class="edge">
<title>ns2_api&#45;&gt;ns6_testfiles</title>
<path fill="none" stroke="black" d="M242.14,-1071C250.54,-1045.5 258,-1014.8 258,-986.25 258,-986.25 258,-986.25 258,-729.75 258,-686.72 385.42,-653.27 459.4,-637.47"/>
<polygon fill="black" stroke="black" points="469.16,-635.43 460.29,-641.88 465.46,-636.2 459.37,-637.48 459.37,-637.48 459.37,-637.48 465.46,-636.2 458.45,-633.07 469.16,-635.43"/>
<text text-anchor="middle" x="311.62" y="-852.95" font-family="Times,serif" font-size="14.00"><a xlink:href='http://sbols.org/v3#hasNamespace'>sbol:hasNamespace</a></text>
</g>
<!-- ns2_child -->
<g id="node2" class="node">
<title>ns2_child</title>
<polygon fill="none" stroke="black" points="818.38,-1461 818.38,-1511 995.62,-1511 995.62,-1461 818.38,-1461"/>
<text text-anchor="start" x="826.38" y="-1494.7" font-family="Times,serif" font-weight="bold" text-decoration="underline" font-size="14.00"><a xlink:href='http://sbolstandard.org/testfiles/child'>ns2:child</a> (<a xlink:href='http://sbols.org/v3#Component'>sbol:Component</a>)</text>
<polyline fill="none" stroke="black" points="818.38,-1486.5 995.62,-1486.5"/>
<text text-anchor="start" x="847.38" y="-1469.2" font-family="Times,serif" font-size="14.00"><a xlink:href='http://sbols.org/v3#displayId'>sbol:displayId</a> = child</text>
</g>
<!-- ns2_in_silico_restriction -->
<g id="node3" class="node">
<title>ns2_in_silico_restriction</title>
<polygon fill="none" stroke="black" points="537.37,-1341.95 537.37,-1408.45 870.63,-1408.45 870.63,-1341.95 537.37,-1341.95"/>
<text text-anchor="start" x="545.37" y="-1392.15" font-family="Times,serif" font-weight="bold" text-decoration="underline" font-size="14.00"><a xlink:href='http://sbolstandard.org/testfiles/in_silico_restriction'>ns2:in_silico_restriction</a> (<a xlink:href='http://sbols.org/v3#TopLevel'>sbol:TopLevel</a>, <a xlink:href='http://www.w3.org/ns/prov#Activity'>prov:Activity</a>)</text>
<polyline fill="none" stroke="black" points="537.37,-1383.95 870.62,-1383.95"/>
<text text-anchor="start" x="559.62" y="-1366.65" font-family="Times,serif" font-size="14.00"><a xlink:href='http://sbols.org/v3#description'>sbol:description</a> = Simulation of restriction digestion</text>
<text text-anchor="start" x="559.62" y="-1350.15" font-family="Times,serif" font-size="14.00"><a xlink:href='http://sbols.org/v3#displayId'>sbol:displayId</a> = in_silico_restriction</text>
</g>
<!-- ns2_child&#45;&gt;ns2_in_silico_restriction -->
<g id="edge1" class="edge">
<title>ns2_child&#45;&gt;ns2_in_silico_restriction</title>
<path fill="none" stroke="black" d="M818.05,-1467C799.44,-1461.1 780.54,-1453.2 764.25,-1443 753.1,-1436 742.75,-1426.3 733.89,-1416.6"/>
<polygon fill="black" stroke="black" points="727.62,-1409.32 737.55,-1413.96 730.08,-1412.19 734.15,-1416.9 734.15,-1416.9 734.15,-1416.9 730.08,-1412.19 730.74,-1419.83 727.62,-1409.32"/>
<text text-anchor="middle" x="824.38" y="-1429.75" font-family="Times,serif" font-size="14.00"><a xlink:href='http://www.w3.org/ns/prov#wasGeneratedBy'>prov:wasGeneratedBy</a></text>
</g>
<!-- ns2_parent -->
<g id="node4" class="node">
<title>ns2_parent</title>
<polygon fill="none" stroke="black" points="807.12,-1095.75 807.12,-1162.25 1012.88,-1162.25 1012.88,-1095.75 807.12,-1095.75"/>
<text text-anchor="start" x="824.5" y="-1145.95" font-family="Times,serif" font-weight="bold" text-decoration="underline" font-size="14.00"><a xlink:href='http://sbolstandard.org/testfiles/parent'>ns2:parent</a> (<a xlink:href='http://sbols.org/v3#Component'>sbol:Component</a>)</text>
<polyline fill="none" stroke="black" points="807.12,-1137.75 1012.88,-1137.75"/>
<text text-anchor="start" x="815.12" y="-1120.45" font-family="Times,serif" font-size="14.00"><a xlink:href='http://sbols.org/v3#description'>sbol:description</a> = Parent sequence</text>
<text text-anchor="start" x="815.12" y="-1103.95" font-family="Times,serif" font-size="14.00"><a xlink:href='http://sbols.org/v3#displayId'>sbol:displayId</a> = parent</text>
</g>
<!-- ns2_child&#45;&gt;ns2_parent -->
<g id="edge2" class="edge">
<title>ns2_child&#45;&gt;ns2_parent</title>
<path fill="none" stroke="black" d="M903.94,-1461.3C895.92,-1398.4 875.21,-1229.9 880,-1205 882.11,-1194.1 885.8,-1182.7 889.89,-1172.2"/>
<polygon fill="black" stroke="black" points="893.61,-1163.13 893.98,-1174.09 892.17,-1166.63 889.82,-1172.38 889.82,-1172.38 889.82,-1172.38 892.17,-1166.63 885.65,-1170.67 893.61,-1163.13"/>
<text text-anchor="middle" x="948.5" y="-1310.75" font-family="Times,serif" font-size="14.00"><a xlink:href='http://www.w3.org/ns/prov#wasDerivedFrom'>prov:wasDerivedFrom</a></text>
</g>
<!-- ns2_child&#45;&gt;ns6_testfiles -->
<g id="edge14" class="edge">
<title>ns2_child&#45;&gt;ns6_testfiles</title>
<path fill="none" stroke="black" d="M995.92,-1476.1C1035.4,-1470 1081.7,-1459.9 1121,-1443 1168.1,-1422.8 1215,-1427.5 1215,-1376.2 1215,-1376.2 1215,-1376.2 1215,-729.75 1215,-663.83 725.34,-636.74 562.76,-629.57"/>
<polygon fill="black" stroke="black" points="552.86,-629.14 563.04,-625.08 556.64,-629.31 562.85,-629.57 562.85,-629.57 562.85,-629.57 556.64,-629.31 562.65,-634.07 552.86,-629.14"/>
<text text-anchor="middle" x="1268.6" y="-1039.75" font-family="Times,serif" font-size="14.00"><a xlink:href='http://sbols.org/v3#hasNamespace'>sbol:hasNamespace</a></text>
</g>
<!-- ns7_0000251 -->
<g id="node12" class="node">
<title>ns7_0000251</title>
<polygon fill="none" stroke="black" points="1062.12,-966.75 1062.12,-1003.75 1147.88,-1003.75 1147.88,-966.75 1062.12,-966.75"/>
<text text-anchor="middle" x="1105" y="-980.2" font-family="Times,serif" font-size="14.00"><a xlink:href='https://identifiers.org/SBO:0000251'>ns7:0000251</a></text>
</g>
<!-- ns2_child&#45;&gt;ns7_0000251 -->
<g id="edge15" class="edge">
<title>ns2_child&#45;&gt;ns7_0000251</title>
<path fill="none" stroke="black" d="M995.92,-1478.1C1060.6,-1467.6 1137,-1441.4 1137,-1376.2 1137,-1376.2 1137,-1376.2 1137,-1128 1137,-1087.5 1124.4,-1042 1115,-1013.7"/>
<polygon fill="black" stroke="black" points="1111.89,-1004.55 1119.37,-1012.57 1113.11,-1008.13 1115.11,-1014.02 1115.11,-1014.02 1115.11,-1014.02 1113.11,-1008.13 1110.85,-1015.47 1111.89,-1004.55"/>
<text text-anchor="middle" x="1161.8" y="-1259.45" font-family="Times,serif" font-size="14.00"><a xlink:href='http://sbols.org/v3#type'>sbol:type</a></text>
</g>
<!-- ns3_Association1 -->
<g id="node5" class="node">
<title>ns3_Association1</title>
<polygon fill="none" stroke="black" points="286.75,-1239.5 286.75,-1289.5 601.25,-1289.5 601.25,-1239.5 286.75,-1239.5"/>
<text text-anchor="start" x="294.75" y="-1273.2" font-family="Times,serif" font-weight="bold" text-decoration="underline" font-size="14.00"><a xlink:href='http://sbolstandard.org/testfiles/in_silico_restriction/Association1'>ns3:Association1</a> (<a xlink:href='http://sbols.org/v3#Identified'>sbol:Identified</a>, <a xlink:href='http://www.w3.org/ns/prov#Association'>prov:Association</a>)</text>
<polyline fill="none" stroke="black" points="286.75,-1265 601.25,-1265"/>
<text text-anchor="start" x="363" y="-1247.7" font-family="Times,serif" font-size="14.00"><a xlink:href='http://sbols.org/v3#displayId'>sbol:displayId</a> = Association1</text>
</g>
<!-- ns2_in_silico_restriction&#45;&gt;ns3_Association1 -->
<g id="edge3" class="edge">
<title>ns2_in_silico_restriction&#45;&gt;ns3_Association1</title>
<path fill="none" stroke="black" d="M622.68,-1342C608.03,-1336.1 592.91,-1329.9 578.75,-1324 555.69,-1314.4 530.54,-1303.5 508.28,-1293.8"/>
<polygon fill="black" stroke="black" points="499.39,-1289.98 510.35,-1289.79 502.86,-1291.47 508.58,-1293.93 508.58,-1293.93 508.58,-1293.93 502.86,-1291.47 506.8,-1298.06 499.39,-1289.98"/>
<text text-anchor="middle" x="648.12" y="-1310.75" font-family="Times,serif" font-size="14.00"><a xlink:href='http://www.w3.org/ns/prov#qualifiedAssociation'>prov:qualifiedAssociation</a></text>
</g>
<!-- ns3_Usage1 -->
<g id="node6" class="node">
<title>ns3_Usage1</title>
<polygon fill="none" stroke="black" points="619.25,-1239.5 619.25,-1289.5 870.75,-1289.5 870.75,-1239.5 619.25,-1239.5"/>
<text text-anchor="start" x="627.25" y="-1273.2" font-family="Times,serif" font-weight="bold" text-decoration="underline" font-size="14.00"><a xlink:href='http://sbolstandard.org/testfiles/in_silico_restriction/Usage1'>ns3:Usage1</a> (<a xlink:href='http://sbols.org/v3#Identified'>sbol:Identified</a>, <a xlink:href='http://www.w3.org/ns/prov#Usage'>prov:Usage</a>)</text>
<polyline fill="none" stroke="black" points="619.25,-1265 870.75,-1265"/>
<text text-anchor="start" x="678.62" y="-1247.7" font-family="Times,serif" font-size="14.00"><a xlink:href='http://sbols.org/v3#displayId'>sbol:displayId</a> = Usage1</text>
</g>
<!-- ns2_in_silico_restriction&#45;&gt;ns3_Usage1 -->
<g id="edge4" class="edge">
<title>ns2_in_silico_restriction&#45;&gt;ns3_Usage1</title>
<path fill="none" stroke="black" d="M716.08,-1342.2C721.11,-1328.9 726.96,-1313.3 732.08,-1299.8"/>
<polygon fill="black" stroke="black" points="735.57,-1290.54 736.25,-1301.48 734.24,-1294.08 732.04,-1299.9 732.04,-1299.9 732.04,-1299.9 734.24,-1294.08 727.83,-1298.31 735.57,-1290.54"/>
<text text-anchor="middle" x="783.12" y="-1310.75" font-family="Times,serif" font-size="14.00"><a xlink:href='http://www.w3.org/ns/prov#qualifiedUsage'>prov:qualifiedUsage</a></text>
</g>
<!-- ns2_in_silico_restriction&#45;&gt;ns6_testfiles -->
<g id="edge16" class="edge">
<title>ns2_in_silico_restriction&#45;&gt;ns6_testfiles</title>
<path fill="none" stroke="black" d="M537.16,-1364.7C328.98,-1350.6 0,-1319.6 0,-1265.5 0,-1265.5 0,-1265.5 0,-729.75 0,-636.77 329.43,-627.18 459.28,-627.01"/>
<polygon fill="black" stroke="black" points="469.26,-627.02 459.26,-631.51 465.48,-627.02 459.26,-627.01 459.26,-627.01 459.26,-627.01 465.48,-627.02 459.27,-622.51 469.26,-627.02"/>
<text text-anchor="middle" x="53.62" y="-980.2" font-family="Times,serif" font-size="14.00"><a xlink:href='http://sbols.org/v3#hasNamespace'>sbol:hasNamespace</a></text>
</g>
<!-- sbol_design -->
<g id="node13" class="node">
<title>sbol_design</title>
<polygon fill="none" stroke="black" points="1031.25,-1110.5 1031.25,-1147.5 1108.75,-1147.5 1108.75,-1110.5 1031.25,-1110.5"/>
<text text-anchor="middle" x="1070" y="-1123.95" font-family="Times,serif" font-size="14.00"><a xlink:href='http://sbols.org/v3#design'>sbol:design</a></text>
</g>
<!-- ns2_in_silico_restriction&#45;&gt;sbol_design -->
<g id="edge17" class="edge">
<title>ns2_in_silico_restriction&#45;&gt;sbol_design</title>
<path fill="none" stroke="black" d="M870.99,-1360.9C932.27,-1353.2 992.63,-1341.5 1017,-1324 1037.9,-1309 1064.8,-1246.5 1071,-1221.5 1072.8,-1214.4 1071,-1212.3 1071,-1205 1070.9,-1189.5 1070.7,-1172.3 1070.5,-1158.2"/>
<polygon fill="black" stroke="black" points="1070.32,-1148.52 1075.01,-1158.43 1070.39,-1152.3 1070.51,-1158.52 1070.51,-1158.52 1070.51,-1158.52 1070.39,-1152.3 1066.01,-1158.6 1070.32,-1148.52"/>
<text text-anchor="middle" x="1089.8" y="-1259.45" font-family="Times,serif" font-size="14.00"><a xlink:href='http://sbols.org/v3#type'>sbol:type</a></text>
</g>
<!-- ns4_SequenceFeature1 -->
<g id="node7" class="node">
<title>ns4_SequenceFeature1</title>
<polygon fill="none" stroke="black" points="727.38,-952 727.38,-1018.5 1012.62,-1018.5 1012.62,-952 727.38,-952"/>
<text text-anchor="start" x="735.38" y="-1002.2" font-family="Times,serif" font-weight="bold" text-decoration="underline" font-size="14.00"><a xlink:href='http://sbolstandard.org/testfiles/parent/SequenceFeature1'>ns4:SequenceFeature1</a> (<a xlink:href='http://sbols.org/v3#SequenceFeature'>sbol:SequenceFeature</a>)</text>
<polyline fill="none" stroke="black" points="727.38,-994 1012.62,-994"/>
<text text-anchor="start" x="769.88" y="-976.7" font-family="Times,serif" font-size="14.00"><a xlink:href='http://sbols.org/v3#displayId'>sbol:displayId</a> = SequenceFeature1</text>
<text text-anchor="start" x="769.88" y="-960.2" font-family="Times,serif" font-size="14.00"><a xlink:href='http://sbols.org/v3#name'>sbol:name</a> = EcoRI_recognition_site</text>
</g>
<!-- ns2_parent&#45;&gt;ns4_SequenceFeature1 -->
<g id="edge5" class="edge">
<title>ns2_parent&#45;&gt;ns4_SequenceFeature1</title>
<path fill="none" stroke="black" d="M900.92,-1095.8C895.35,-1076.1 888.14,-1050.5 882.09,-1029.1"/>
<polygon fill="black" stroke="black" points="879.37,-1019.47 886.42,-1027.87 880.4,-1023.11 882.09,-1029.1 882.09,-1029.1 882.09,-1029.1 880.4,-1023.11 877.76,-1030.32 879.37,-1019.47"/>
<text text-anchor="middle" x="930.38" y="-1039.75" font-family="Times,serif" font-size="14.00"><a xlink:href='http://sbols.org/v3#hasFeature'>sbol:hasFeature</a></text>
</g>
<!-- ns2_seq -->
<g id="node8" class="node">
<title>ns2_seq</title>
<polygon fill="none" stroke="black" points="671.38,-697.5 671.38,-764 830.62,-764 830.62,-697.5 671.38,-697.5"/>
<text text-anchor="start" x="682.38" y="-747.7" font-family="Times,serif" font-weight="bold" text-decoration="underline" font-size="14.00"><a xlink:href='http://sbolstandard.org/testfiles/seq'>ns2:seq</a> (<a xlink:href='http://sbols.org/v3#Sequence'>sbol:Sequence</a>)</text>
<polyline fill="none" stroke="black" points="671.38,-739.5 830.62,-739.5"/>
<text text-anchor="start" x="679.38" y="-722.2" font-family="Times,serif" font-size="14.00"><a xlink:href='http://sbols.org/v3#displayId'>sbol:displayId</a> = seq</text>
<text text-anchor="start" x="679.38" y="-705.7" font-family="Times,serif" font-size="14.00"><a xlink:href='http://sbols.org/v3#elements'>sbol:elements</a> = atgnnntaa</text>
</g>
<!-- ns2_parent&#45;&gt;ns2_seq -->
<g id="edge6" class="edge">
<title>ns2_parent&#45;&gt;ns2_seq</title>
<path fill="none" stroke="black" d="M851.8,-1095.9C835.02,-1087.2 816.51,-1078.3 799,-1071 774.85,-1061 764.16,-1068.3 743,-1053 727.67,-1041.9 723.84,-1036.5 718,-1018.5 690.85,-934.76 716.5,-830.91 735.27,-773.99"/>
<polygon fill="black" stroke="black" points="738.41,-764.74 739.46,-775.66 737.19,-768.32 735.19,-774.21 735.19,-774.21 735.19,-774.21 737.19,-768.32 730.93,-772.77 738.41,-764.74"/>
<text text-anchor="middle" x="754" y="-920.7" font-family="Times,serif" font-size="14.00"><a xlink:href='http://sbols.org/v3#hasSequence'>sbol:hasSequence</a></text>
</g>
<!-- ns2_parent&#45;&gt;ns6_testfiles -->
<g id="edge18" class="edge">
<title>ns2_parent&#45;&gt;ns6_testfiles</title>
<path fill="none" stroke="black" d="M853.89,-1095.8C836.68,-1086.8 817.41,-1077.7 799,-1071 701.76,-1035.4 582,-1089.8 582,-986.25 582,-986.25 582,-986.25 582,-729.75 582,-699.3 560.5,-671.4 541.16,-652.47"/>
<polygon fill="black" stroke="black" points="533.97,-645.75 544.35,-649.29 536.73,-648.33 541.28,-652.58 541.28,-652.58 541.28,-652.58 536.73,-648.33 538.2,-655.87 533.97,-645.75"/>
<text text-anchor="middle" x="635.62" y="-852.95" font-family="Times,serif" font-size="14.00"><a xlink:href='http://sbols.org/v3#hasNamespace'>sbol:hasNamespace</a></text>
</g>
<!-- ns2_parent&#45;&gt;ns7_0000251 -->
<g id="edge19" class="edge">
<title>ns2_parent&#45;&gt;ns7_0000251</title>
<path fill="none" stroke="black" d="M954.25,-1095.8C990.04,-1069.8 1039.7,-1033.8 1072,-1010.2"/>
<polygon fill="black" stroke="black" points="1080.11,-1004.32 1074.66,-1013.83 1077.05,-1006.54 1072.02,-1010.19 1072.02,-1010.19 1072.02,-1010.19 1077.05,-1006.54 1069.38,-1006.54 1080.11,-1004.32"/>
<text text-anchor="middle" x="1054.8" y="-1039.75" font-family="Times,serif" font-size="14.00"><a xlink:href='http://sbols.org/v3#type'>sbol:type</a></text>
</g>
<!-- ns3_Association1&#45;&gt;ns2_api -->
<g id="edge7" class="edge">
<title>ns3_Association1&#45;&gt;ns2_api</title>
<path fill="none" stroke="black" d="M403.77,-1239.6C381.52,-1226.4 352.71,-1209.3 324.5,-1192.6"/>
<polygon fill="black" stroke="black" points="316.01,-1187.52 326.9,-1188.79 319.25,-1189.46 324.59,-1192.65 324.59,-1192.65 324.59,-1192.65 319.25,-1189.46 322.28,-1196.52 316.01,-1187.52"/>
<text text-anchor="middle" x="399.88" y="-1208.15" font-family="Times,serif" font-size="14.00"><a xlink:href='http://www.w3.org/ns/prov#agent'>prov:agent</a></text>
</g>
<!-- ns2_plan -->
<g id="node9" class="node">
<title>ns2_plan</title>
<polygon fill="none" stroke="black" points="428.5,-1087.5 428.5,-1170.5 789.5,-1170.5 789.5,-1087.5 428.5,-1087.5"/>
<text text-anchor="start" x="504.37" y="-1154.2" font-family="Times,serif" font-weight="bold" text-decoration="underline" font-size="14.00"><a xlink:href='http://sbolstandard.org/testfiles/plan'>ns2:plan</a> (<a xlink:href='http://sbols.org/v3#TopLevel'>sbol:TopLevel</a>, <a xlink:href='http://www.w3.org/ns/prov#Plan'>prov:Plan</a>)</text>
<polyline fill="none" stroke="black" points="428.5,-1146 789.5,-1146"/>
<text text-anchor="start" x="436.5" y="-1128.2" font-family="Times,serif" font-size="14.00"><a xlink:href='http://example.org/my_vis#enzyme_name'>ns1:enzyme_name</a> = EcoRI</text>
<text text-anchor="start" x="436.5" y="-1111.7" font-family="Times,serif" font-size="14.00"><a xlink:href='http://sbols.org/v3#description'>sbol:description</a> = Will contain fields describing position of cut</text>
<text text-anchor="start" x="436.5" y="-1095.2" font-family="Times,serif" font-size="14.00"><a xlink:href='http://sbols.org/v3#displayId'>sbol:displayId</a> = plan</text>
</g>
<!-- ns3_Association1&#45;&gt;ns2_plan -->
<g id="edge8" class="edge">
<title>ns3_Association1&#45;&gt;ns2_plan</title>
<path fill="none" stroke="black" d="M473.5,-1239.6C494.82,-1222.4 524.33,-1198.5 550.37,-1177.4"/>
<polygon fill="black" stroke="black" points="558.1,-1171.16 553.14,-1180.95 555.16,-1173.54 550.32,-1177.44 550.32,-1177.44 550.32,-1177.44 555.16,-1173.54 547.49,-1173.94 558.1,-1171.16"/>
<text text-anchor="middle" x="547" y="-1208.15" font-family="Times,serif" font-size="14.00"><a xlink:href='http://www.w3.org/ns/prov#hadPlan'>prov:hadPlan</a></text>
</g>
<!-- ns3_Association1&#45;&gt;sbol_design -->
<g id="edge20" class="edge">
<title>ns3_Association1&#45;&gt;sbol_design</title>
<path fill="none" stroke="black" d="M601.68,-1240.4C604.47,-1240.1 607.25,-1239.8 610,-1239.5 668.25,-1233.3 817.78,-1241 873,-1221.5 885.03,-1217.2 884.63,-1209.7 896.5,-1205 950.15,-1183.8 974.98,-1215.7 1025,-1187 1037.3,-1179.9 1047.6,-1168 1055.1,-1156.9"/>
<polygon fill="black" stroke="black" points="1060.44,-1148.53 1058.86,-1159.38 1058.41,-1151.71 1055.06,-1156.96 1055.06,-1156.96 1055.06,-1156.96 1058.41,-1151.71 1051.27,-1154.54 1060.44,-1148.53"/>
<text text-anchor="middle" x="932.75" y="-1208.15" font-family="Times,serif" font-size="14.00"><a xlink:href='http://www.w3.org/ns/prov#hadRole'>prov:hadRole</a></text>
</g>
<!-- ns3_Usage1&#45;&gt;ns2_parent -->
<g id="edge9" class="edge">
<title>ns3_Usage1&#45;&gt;ns2_parent</title>
<path fill="none" stroke="black" d="M770.82,-1239.7C782.77,-1228.9 797.28,-1216 810.75,-1205 825.54,-1192.9 841.99,-1180.1 857.17,-1168.7"/>
<polygon fill="black" stroke="black" points="864.97,-1162.83 859.68,-1172.44 861.94,-1165.11 856.98,-1168.85 856.98,-1168.85 856.98,-1168.85 861.94,-1165.11 854.27,-1165.25 864.97,-1162.83"/>
<text text-anchor="middle" x="839.62" y="-1208.15" font-family="Times,serif" font-size="14.00"><a xlink:href='http://www.w3.org/ns/prov#entity'>prov:entity</a></text>
</g>
<!-- ns3_Usage1&#45;&gt;sbol_design -->
<g id="edge21" class="edge">
<title>ns3_Usage1&#45;&gt;sbol_design</title>
<path fill="none" stroke="black" d="M871.12,-1250.4C905.36,-1244.1 941.85,-1235 974,-1221.5 985.77,-1216.6 986.94,-1212.2 997.5,-1205 1009.6,-1196.8 1014.2,-1196.9 1025,-1187 1034.9,-1177.9 1044.3,-1166.6 1052,-1156.4"/>
<polygon fill="black" stroke="black" points="1057.79,-1148.39 1055.58,-1159.13 1055.57,-1151.45 1051.93,-1156.49 1051.93,-1156.49 1051.93,-1156.49 1055.57,-1151.45 1048.28,-1153.86 1057.79,-1148.39"/>
<text text-anchor="middle" x="1033.8" y="-1208.15" font-family="Times,serif" font-size="14.00"><a xlink:href='http://www.w3.org/ns/prov#hadRole'>prov:hadRole</a></text>
</g>
<!-- ns5_Range1 -->
<g id="node10" class="node">
<title>ns5_Range1</title>
<polygon fill="none" stroke="black" points="742.62,-816.5 742.62,-899.5 903.38,-899.5 903.38,-816.5 742.62,-816.5"/>
<text text-anchor="start" x="750.62" y="-883.2" font-family="Times,serif" font-weight="bold" text-decoration="underline" font-size="14.00"><a xlink:href='http://sbolstandard.org/testfiles/parent/SequenceFeature1/Range1'>ns5:Range1</a> (<a xlink:href='http://sbols.org/v3#Range'>sbol:Range</a>)</text>
<polyline fill="none" stroke="black" points="742.62,-875 903.38,-875"/>
<text text-anchor="start" x="756.25" y="-857.2" font-family="Times,serif" font-size="14.00"><a xlink:href='http://sbols.org/v3#displayId'>sbol:displayId</a> = Range1</text>
<text text-anchor="start" x="756.25" y="-840.7" font-family="Times,serif" font-size="14.00"><a xlink:href='http://sbols.org/v3#end'>sbol:end</a> = 10</text>
<text text-anchor="start" x="756.25" y="-824.2" font-family="Times,serif" font-size="14.00"><a xlink:href='http://sbols.org/v3#start'>sbol:start</a> = 0</text>
</g>
<!-- ns4_SequenceFeature1&#45;&gt;ns5_Range1 -->
<g id="edge11" class="edge">
<title>ns4_SequenceFeature1&#45;&gt;ns5_Range1</title>
<path fill="none" stroke="black" d="M858.02,-952.32C853.16,-939.37 847.43,-924.1 842.03,-909.7"/>
<polygon fill="black" stroke="black" points="838.6,-900.56 846.33,-908.34 839.93,-904.1 842.11,-909.92 842.11,-909.92 842.11,-909.92 839.93,-904.1 837.9,-911.5 838.6,-900.56"/>
<text text-anchor="middle" x="896.12" y="-920.7" font-family="Times,serif" font-size="14.00"><a xlink:href='http://sbols.org/v3#hasLocation'>sbol:hasLocation</a></text>
</g>
<!-- ns8_0001687 -->
<g id="node14" class="node">
<title>ns8_0001687</title>
<polygon fill="none" stroke="black" points="1029.12,-839.5 1029.12,-876.5 1114.88,-876.5 1114.88,-839.5 1029.12,-839.5"/>
<text text-anchor="middle" x="1072" y="-852.95" font-family="Times,serif" font-size="14.00"><a xlink:href='https://identifiers.org/SO:0001687'>ns8:0001687</a></text>
</g>
<!-- ns4_SequenceFeature1&#45;&gt;ns8_0001687 -->
<g id="edge23" class="edge">
<title>ns4_SequenceFeature1&#45;&gt;ns8_0001687</title>
<path fill="none" stroke="black" d="M935.91,-952.14C964.16,-937.39 997.02,-918.89 1025,-899.5 1031.9,-894.69 1039,-889.03 1045.5,-883.49"/>
<polygon fill="black" stroke="black" points="1053.08,-876.91 1048.48,-886.86 1050.22,-879.39 1045.53,-883.46 1045.53,-883.46 1045.53,-883.46 1050.22,-879.39 1042.58,-880.07 1053.08,-876.91"/>
<text text-anchor="middle" x="1019.6" y="-920.7" font-family="Times,serif" font-size="14.00"><a xlink:href='http://sbols.org/v3#role'>sbol:role</a></text>
</g>
<!-- ns2_seq&#45;&gt;ns6_testfiles -->
<g id="edge24" class="edge">
<title>ns2_seq&#45;&gt;ns6_testfiles</title>
<path fill="none" stroke="black" d="M676.96,-697.67C651.34,-686.62 622.43,-674.21 596,-663 584.95,-658.31 573.08,-653.33 561.81,-648.62"/>
<polygon fill="black" stroke="black" points="552.8,-644.85 563.77,-644.56 556.29,-646.31 562.03,-648.71 562.03,-648.71 562.03,-648.71 556.29,-646.31 560.29,-652.86 552.8,-644.85"/>
<text text-anchor="middle" x="687.62" y="-666.2" font-family="Times,serif" font-size="14.00"><a xlink:href='http://sbols.org/v3#hasNamespace'>sbol:hasNamespace</a></text>
</g>
<!-- ns9_format_1207 -->
<g id="node15" class="node">
<title>ns9_format_1207</title>
<polygon fill="none" stroke="black" points="1193.5,-608 1193.5,-645 1302.5,-645 1302.5,-608 1193.5,-608"/>
<text text-anchor="middle" x="1248" y="-621.45" font-family="Times,serif" font-size="14.00"><a xlink:href='https://identifiers.org/edam:format_1207'>ns9:format_1207</a></text>
</g>
<!-- ns2_seq&#45;&gt;ns9_format_1207 -->
<g id="edge25" class="edge">
<title>ns2_seq&#45;&gt;ns9_format_1207</title>
<path fill="none" stroke="black" d="M830.85,-713.32C928.44,-693.24 1091.7,-659.65 1182.4,-641"/>
<polygon fill="black" stroke="black" points="1192.11,-639 1183.22,-645.43 1188.4,-639.76 1182.31,-641.02 1182.31,-641.02 1182.31,-641.02 1188.4,-639.76 1181.4,-636.61 1192.11,-639"/>
<text text-anchor="middle" x="1110.9" y="-666.2" font-family="Times,serif" font-size="14.00"><a xlink:href='http://sbols.org/v3#encoding'>sbol:encoding</a></text>
</g>
<!-- ns2_plan&#45;&gt;ns4_SequenceFeature1 -->
<g id="edge10" class="edge">
<title>ns2_plan&#45;&gt;ns4_SequenceFeature1</title>
<path fill="none" stroke="black" d="M683.44,-1087.6C720.51,-1067.4 765.03,-1043.3 801.28,-1023.6"/>
<polygon fill="black" stroke="black" points="809.72,-1018.98 803.11,-1027.73 806.4,-1020.8 800.95,-1023.78 800.95,-1023.78 800.95,-1023.78 806.4,-1020.8 798.79,-1019.83 809.72,-1018.98"/>
<text text-anchor="middle" x="814.62" y="-1039.75" font-family="Times,serif" font-size="14.00"><a xlink:href='http://example.org/my_vis#cut_position'>ns1:cut_position</a></text>
</g>
<!-- ns2_plan&#45;&gt;ns6_testfiles -->
<g id="edge22" class="edge">
<title>ns2_plan&#45;&gt;ns6_testfiles</title>
<path fill="none" stroke="black" d="M513.07,-1087.8C474.51,-1064.7 439,-1031.2 439,-986.25 439,-986.25 439,-986.25 439,-729.75 439,-699.16 460.8,-671.28 480.41,-652.38"/>
<polygon fill="black" stroke="black" points="487.71,-645.67 483.39,-655.75 484.93,-648.23 480.35,-652.44 480.35,-652.44 480.35,-652.44 484.93,-648.23 477.3,-649.12 487.71,-645.67"/>
<text text-anchor="middle" x="492.62" y="-852.95" font-family="Times,serif" font-size="14.00"><a xlink:href='http://sbols.org/v3#hasNamespace'>sbol:hasNamespace</a></text>
</g>
<!-- ns5_Range1&#45;&gt;ns2_seq -->
<g id="edge12" class="edge">
<title>ns5_Range1&#45;&gt;ns2_seq</title>
<path fill="none" stroke="black" d="M799.82,-816.68C791.81,-802.74 782.81,-787.09 774.75,-773.07"/>
<polygon fill="black" stroke="black" points="769.95,-764.72 778.83,-771.14 771.83,-767.99 774.93,-773.39 774.93,-773.39 774.93,-773.39 771.83,-767.99 771.03,-775.63 769.95,-764.72"/>
<text text-anchor="middle" x="837" y="-785.2" font-family="Times,serif" font-size="14.00"><a xlink:href='http://sbols.org/v3#hasSequence'>sbol:hasSequence</a></text>
</g>
</g>
</svg>
