<?xml version="1.0" encoding="UTF-8" standalone="no"?>
<!DOCTYPE svg PUBLIC "-//W3C//DTD SVG 1.1//EN"
 "http://www.w3.org/Graphics/SVG/1.1/DTD/svg11.dtd">
<!-- Generated by graphviz version 9.0.0 (20230911.1827)
 -->
<!-- Pages: 1 -->
<svg width="1330pt" height="937pt"
 viewBox="0.00 0.00 1330.22 936.50" xmlns="http://www.w3.org/2000/svg" xmlns:xlink="http://www.w3.org/1999/xlink">
<g id="graph0" class="graph" transform="scale(1 1) rotate(0) translate(4 932.5)">
<polygon fill="white" stroke="none" points="-4,4 -4,-932.5 1326.22,-932.5 1326.22,4 -4,4"/>
<g id="clust1" class="cluster">
<title>cluster_file___example1_ttl</title>
<polygon fill="none" stroke="black" points="20,-82 20,-928.5 1021,-928.5 1021,-82 20,-82"/>
<text text-anchor="middle" x="520.5" y="-916.9" font-family="Bitstream Vera Sans" font-size="8.00">file://example1.ttl</text>
</g>
<!-- ns2_api -->
<g id="node1" class="node">
<title>ns2_api</title>
<polygon fill="none" stroke="black" points="27.62,-463.5 27.62,-579.5 410.38,-579.5 410.38,-463.5 27.62,-463.5"/>
<text text-anchor="start" x="114" y="-563.2" font-family="Times,serif" font-weight="bold" text-decoration="underline" font-size="14.00"><a xlink:href='http://sbolstandard.org/testfiles/api'>ns2:api</a> (<a xlink:href='http://sbols.org/v3#TopLevel'>sbol:TopLevel</a>, <a xlink:href='http://www.w3.org/ns/prov#Agent'>prov:Agent</a>)</text>
<polyline fill="none" stroke="black" points="27.62,-555 410.37,-555"/>
<text text-anchor="start" x="35.62" y="-537.7" font-family="Times,serif" font-size="14.00"><a xlink:href='http://example.org/my_vis#api_url'>ns1:api_url</a> = http://example.org/api</text>
<text text-anchor="start" x="35.62" y="-521.2" font-family="Times,serif" font-size="14.00"><a xlink:href='http://example.org/my_vis#api_version'>ns1:api_version</a> = 1.0</text>
<text text-anchor="start" x="35.62" y="-504.7" font-family="Times,serif" font-size="14.00"><a xlink:href='http://example.org/my_vis#request_method'>ns1:request_method</a> = POST</text>
<text text-anchor="start" x="35.62" y="-488.2" font-family="Times,serif" font-size="14.00"><a xlink:href='http://sbols.org/v3#description'>sbol:description</a> = Receives input seq and activity and returns child</text>
<text text-anchor="start" x="35.62" y="-471.7" font-family="Times,serif" font-size="14.00"><a xlink:href='http://sbols.org/v3#displayId'>sbol:displayId</a> = api</text>
</g>
<!-- ns7_testfiles -->
<g id="node11" class="node">
<title>ns7_testfiles</title>
<polygon fill="none" stroke="black" points="499.75,-0.5 499.75,-37.5 580.25,-37.5 580.25,-0.5 499.75,-0.5"/>
<text text-anchor="middle" x="540" y="-13.95" font-family="Times,serif" font-size="14.00"><a xlink:href='http://sbolstandard.org/testfiles'>ns7:testfiles</a></text>
</g>
<!-- ns2_api&#45;&gt;ns7_testfiles -->
<g id="edge13" class="edge">
<title>ns2_api&#45;&gt;ns7_testfiles</title>
<path fill="none" stroke="black" d="M250.75,-463.66C262.04,-438.44 272,-407.91 272,-378.75 272,-378.75 272,-378.75 272,-122.25 272,-76.35 410.95,-43.54 488.75,-28.76"/>
<polygon fill="black" stroke="black" points="498.1,-27.02 489.1,-33.28 494.38,-27.71 488.27,-28.85 488.27,-28.85 488.27,-28.85 494.38,-27.71 487.45,-24.43 498.1,-27.02"/>
<text text-anchor="middle" x="325.62" y="-245.45" font-family="Times,serif" font-size="14.00"><a xlink:href='http://sbols.org/v3#hasNamespace'>sbol:hasNamespace</a></text>
</g>
<!-- ns2_child -->
<g id="node2" class="node">
<title>ns2_child</title>
<polygon fill="none" stroke="black" points="818.38,-853.5 818.38,-903.5 995.62,-903.5 995.62,-853.5 818.38,-853.5"/>
<text text-anchor="start" x="826.38" y="-887.2" font-family="Times,serif" font-weight="bold" text-decoration="underline" font-size="14.00"><a xlink:href='http://sbolstandard.org/testfiles/child'>ns2:child</a> (<a xlink:href='http://sbols.org/v3#Component'>sbol:Component</a>)</text>
<polyline fill="none" stroke="black" points="818.38,-879 995.62,-879"/>
<text text-anchor="start" x="847.38" y="-861.7" font-family="Times,serif" font-size="14.00"><a xlink:href='http://sbols.org/v3#displayId'>sbol:displayId</a> = child</text>
</g>
<!-- ns2_in_silico_restriction -->
<g id="node3" class="node">
<title>ns2_in_silico_restriction</title>
<polygon fill="none" stroke="black" points="537.37,-734.5 537.37,-801 870.63,-801 870.63,-734.5 537.37,-734.5"/>
<text text-anchor="start" x="545.37" y="-784.7" font-family="Times,serif" font-weight="bold" text-decoration="underline" font-size="14.00"><a xlink:href='http://sbolstandard.org/testfiles/in_silico_restriction'>ns2:in_silico_restriction</a> (<a xlink:href='http://sbols.org/v3#TopLevel'>sbol:TopLevel</a>, <a xlink:href='http://www.w3.org/ns/prov#Activity'>prov:Activity</a>)</text>
<polyline fill="none" stroke="black" points="537.37,-776.5 870.62,-776.5"/>
<text text-anchor="start" x="559.62" y="-759.2" font-family="Times,serif" font-size="14.00"><a xlink:href='http://sbols.org/v3#description'>sbol:description</a> = Simulation of restriction digestion</text>
<text text-anchor="start" x="559.62" y="-742.7" font-family="Times,serif" font-size="14.00"><a xlink:href='http://sbols.org/v3#displayId'>sbol:displayId</a> = in_silico_restriction</text>
</g>
<!-- ns2_child&#45;&gt;ns2_in_silico_restriction -->
<g id="edge1" class="edge">
<title>ns2_child&#45;&gt;ns2_in_silico_restriction</title>
<path fill="none" stroke="black" d="M818.05,-859.55C799.44,-853.58 780.54,-845.74 764.25,-835.5 753.1,-828.49 742.75,-818.85 733.89,-809.07"/>
<polygon fill="black" stroke="black" points="727.62,-801.8 737.56,-806.43 730.09,-804.66 734.15,-809.37 734.15,-809.37 734.15,-809.37 730.09,-804.66 730.74,-812.31 727.62,-801.8"/>
<text text-anchor="middle" x="824.38" y="-822.2" font-family="Times,serif" font-size="14.00"><a xlink:href='http://www.w3.org/ns/prov#wasGeneratedBy'>prov:wasGeneratedBy</a></text>
</g>
<!-- ns2_parent -->
<g id="node4" class="node">
<title>ns2_parent</title>
<polygon fill="none" stroke="black" points="807.12,-488.25 807.12,-554.75 1012.88,-554.75 1012.88,-488.25 807.12,-488.25"/>
<text text-anchor="start" x="824.5" y="-538.45" font-family="Times,serif" font-weight="bold" text-decoration="underline" font-size="14.00"><a xlink:href='http://sbolstandard.org/testfiles/parent'>ns2:parent</a> (<a xlink:href='http://sbols.org/v3#Component'>sbol:Component</a>)</text>
<polyline fill="none" stroke="black" points="807.12,-530.25 1012.88,-530.25"/>
<text text-anchor="start" x="815.12" y="-512.95" font-family="Times,serif" font-size="14.00"><a xlink:href='http://sbols.org/v3#description'>sbol:description</a> = Parent sequence</text>
<text text-anchor="start" x="815.12" y="-496.45" font-family="Times,serif" font-size="14.00"><a xlink:href='http://sbols.org/v3#displayId'>sbol:displayId</a> = parent</text>
</g>
<!-- ns2_child&#45;&gt;ns2_parent -->
<g id="edge2" class="edge">
<title>ns2_child&#45;&gt;ns2_parent</title>
<path fill="none" stroke="black" d="M903.94,-853.84C895.92,-790.88 875.21,-622.38 880,-597.5 882.11,-586.55 885.8,-575.17 889.89,-564.68"/>
<polygon fill="black" stroke="black" points="893.61,-555.67 893.95,-566.63 892.16,-559.16 889.79,-564.91 889.79,-564.91 889.79,-564.91 892.16,-559.16 885.63,-563.2 893.61,-555.67"/>
<text text-anchor="middle" x="948.5" y="-703.2" font-family="Times,serif" font-size="14.00"><a xlink:href='http://www.w3.org/ns/prov#wasDerivedFrom'>prov:wasDerivedFrom</a></text>
</g>
<!-- ns2_child&#45;&gt;ns7_testfiles -->
<g id="edge14" class="edge">
<title>ns2_child&#45;&gt;ns7_testfiles</title>
<path fill="none" stroke="black" d="M995.92,-868.63C1035.4,-862.54 1081.7,-852.38 1121,-835.5 1168.1,-815.28 1215,-819.99 1215,-768.75 1215,-768.75 1215,-768.75 1215,-122.25 1215,-59.24 749.26,-30.36 591.52,-22.38"/>
<polygon fill="black" stroke="black" points="581.92,-21.91 592.13,-17.91 585.69,-22.09 591.9,-22.4 591.9,-22.4 591.9,-22.4 585.69,-22.09 591.68,-26.9 581.92,-21.91"/>
<text text-anchor="middle" x="1268.6" y="-432.2" font-family="Times,serif" font-size="14.00"><a xlink:href='http://sbols.org/v3#hasNamespace'>sbol:hasNamespace</a></text>
</g>
<!-- ns8_0000251 -->
<g id="node12" class="node">
<title>ns8_0000251</title>
<polygon fill="none" stroke="black" points="1062.12,-359.25 1062.12,-396.25 1147.88,-396.25 1147.88,-359.25 1062.12,-359.25"/>
<text text-anchor="middle" x="1105" y="-372.7" font-family="Times,serif" font-size="14.00"><a xlink:href='https://identifiers.org/SBO:0000251'>ns8:0000251</a></text>
</g>
<!-- ns2_child&#45;&gt;ns8_0000251 -->
<g id="edge15" class="edge">
<title>ns2_child&#45;&gt;ns8_0000251</title>
<path fill="none" stroke="black" d="M995.92,-870.56C1060.6,-860.08 1137,-833.9 1137,-768.75 1137,-768.75 1137,-768.75 1137,-520.5 1137,-479.96 1124.4,-434.47 1115,-406.22"/>
<polygon fill="black" stroke="black" points="1111.89,-397.08 1119.37,-405.1 1113.11,-400.66 1115.11,-406.55 1115.11,-406.55 1115.11,-406.55 1113.11,-400.66 1110.85,-408 1111.89,-397.08"/>
<text text-anchor="middle" x="1161.8" y="-651.95" font-family="Times,serif" font-size="14.00"><a xlink:href='http://sbols.org/v3#type'>sbol:type</a></text>
</g>
<!-- ns3_Association1 -->
<g id="node5" class="node">
<title>ns3_Association1</title>
<polygon fill="none" stroke="black" points="286.75,-632 286.75,-682 601.25,-682 601.25,-632 286.75,-632"/>
<text text-anchor="start" x="294.75" y="-665.7" font-family="Times,serif" font-weight="bold" text-decoration="underline" font-size="14.00"><a xlink:href='http://sbolstandard.org/testfiles/in_silico_restriction/Association1'>ns3:Association1</a> (<a xlink:href='http://sbols.org/v3#Identified'>sbol:Identified</a>, <a xlink:href='http://www.w3.org/ns/prov#Association'>prov:Association</a>)</text>
<polyline fill="none" stroke="black" points="286.75,-657.5 601.25,-657.5"/>
<text text-anchor="start" x="363" y="-640.2" font-family="Times,serif" font-size="14.00"><a xlink:href='http://sbols.org/v3#displayId'>sbol:displayId</a> = Association1</text>
</g>
<!-- ns2_in_silico_restriction&#45;&gt;ns3_Association1 -->
<g id="edge3" class="edge">
<title>ns2_in_silico_restriction&#45;&gt;ns3_Association1</title>
<path fill="none" stroke="black" d="M622.68,-734.51C608.03,-728.59 592.91,-722.41 578.75,-716.5 555.69,-706.87 530.54,-696.04 508.28,-686.34"/>
<polygon fill="black" stroke="black" points="499.39,-682.46 510.35,-682.33 502.85,-683.97 508.55,-686.46 508.55,-686.46 508.55,-686.46 502.85,-683.97 506.75,-690.58 499.39,-682.46"/>
<text text-anchor="middle" x="648.12" y="-703.2" font-family="Times,serif" font-size="14.00"><a xlink:href='http://www.w3.org/ns/prov#qualifiedAssociation'>prov:qualifiedAssociation</a></text>
</g>
<!-- ns3_Usage1 -->
<g id="node6" class="node">
<title>ns3_Usage1</title>
<polygon fill="none" stroke="black" points="619.25,-632 619.25,-682 870.75,-682 870.75,-632 619.25,-632"/>
<text text-anchor="start" x="627.25" y="-665.7" font-family="Times,serif" font-weight="bold" text-decoration="underline" font-size="14.00"><a xlink:href='http://sbolstandard.org/testfiles/in_silico_restriction/Usage1'>ns3:Usage1</a> (<a xlink:href='http://sbols.org/v3#Identified'>sbol:Identified</a>, <a xlink:href='http://www.w3.org/ns/prov#Usage'>prov:Usage</a>)</text>
<polyline fill="none" stroke="black" points="619.25,-657.5 870.75,-657.5"/>
<text text-anchor="start" x="678.62" y="-640.2" font-family="Times,serif" font-size="14.00"><a xlink:href='http://sbols.org/v3#displayId'>sbol:displayId</a> = Usage1</text>
</g>
<!-- ns2_in_silico_restriction&#45;&gt;ns3_Usage1 -->
<g id="edge4" class="edge">
<title>ns2_in_silico_restriction&#45;&gt;ns3_Usage1</title>
<path fill="none" stroke="black" d="M716.08,-734.71C721.11,-721.36 726.96,-705.84 732.08,-692.26"/>
<polygon fill="black" stroke="black" points="735.57,-683.01 736.25,-693.95 734.23,-686.55 732.04,-692.37 732.04,-692.37 732.04,-692.37 734.23,-686.55 727.83,-690.78 735.57,-683.01"/>
<text text-anchor="middle" x="783.12" y="-703.2" font-family="Times,serif" font-size="14.00"><a xlink:href='http://www.w3.org/ns/prov#qualifiedUsage'>prov:qualifiedUsage</a></text>
</g>
<!-- ns2_in_silico_restriction&#45;&gt;ns7_testfiles -->
<g id="edge16" class="edge">
<title>ns2_in_silico_restriction&#45;&gt;ns7_testfiles</title>
<path fill="none" stroke="black" d="M537.16,-757.23C328.98,-743.06 0,-712.11 0,-658 0,-658 0,-658 0,-122.25 0,-72.83 353.66,-36.43 488.57,-24.35"/>
<polygon fill="black" stroke="black" points="498.2,-23.49 488.63,-28.86 494.43,-23.83 488.24,-24.38 488.24,-24.38 488.24,-24.38 494.43,-23.83 487.84,-19.89 498.2,-23.49"/>
<text text-anchor="middle" x="53.62" y="-372.7" font-family="Times,serif" font-size="14.00"><a xlink:href='http://sbols.org/v3#hasNamespace'>sbol:hasNamespace</a></text>
</g>
<!-- sbol_design -->
<g id="node13" class="node">
<title>sbol_design</title>
<polygon fill="none" stroke="black" points="1031.25,-503 1031.25,-540 1108.75,-540 1108.75,-503 1031.25,-503"/>
<text text-anchor="middle" x="1070" y="-516.45" font-family="Times,serif" font-size="14.00"><a xlink:href='http://sbols.org/v3#design'>sbol:design</a></text>
</g>
<!-- ns2_in_silico_restriction&#45;&gt;sbol_design -->
<g id="edge17" class="edge">
<title>ns2_in_silico_restriction&#45;&gt;sbol_design</title>
<path fill="none" stroke="black" d="M870.99,-753.37C932.27,-745.7 992.63,-733.99 1017,-716.5 1037.9,-701.49 1064.8,-638.99 1071,-614 1072.8,-606.88 1071,-604.83 1071,-597.5 1070.9,-582.04 1070.7,-564.78 1070.5,-550.72"/>
<polygon fill="black" stroke="black" points="1070.32,-541 1075,-550.91 1070.39,-544.78 1070.51,-551 1070.51,-551 1070.51,-551 1070.39,-544.78 1066.01,-551.08 1070.32,-541"/>
<text text-anchor="middle" x="1089.8" y="-651.95" font-family="Times,serif" font-size="14.00"><a xlink:href='http://sbols.org/v3#type'>sbol:type</a></text>
</g>
<!-- ns5_00016871 -->
<g id="node7" class="node">
<title>ns5_00016871</title>
<polygon fill="none" stroke="black" points="681.87,-344.5 681.87,-411 898.13,-411 898.13,-344.5 681.87,-344.5"/>
<text text-anchor="start" x="709" y="-394.7" font-family="Times,serif" font-weight="bold" text-decoration="underline" font-size="14.00"><a xlink:href='http://sbolstandard.org/testfiles/parent/SO:00016871'>ns5:00016871</a> (<a xlink:href='https://identifiers.org/SO:0001687'>ns4:0001687</a>)</text>
<polyline fill="none" stroke="black" points="681.87,-386.5 898.12,-386.5"/>
<text text-anchor="start" x="689.87" y="-369.2" font-family="Times,serif" font-size="14.00"><a xlink:href='http://sbols.org/v3#displayId'>sbol:displayId</a> = SO:00016871</text>
<text text-anchor="start" x="689.87" y="-352.7" font-family="Times,serif" font-size="14.00"><a xlink:href='http://sbols.org/v3#name'>sbol:name</a> = EcoRI_recognition_site</text>
</g>
<!-- ns2_parent&#45;&gt;ns5_00016871 -->
<g id="edge5" class="edge">
<title>ns2_parent&#45;&gt;ns5_00016871</title>
<path fill="none" stroke="black" d="M869.55,-488.54C855.2,-476.03 839.56,-460.98 827.25,-445.5 821.19,-437.88 815.54,-429.14 810.57,-420.55"/>
<polygon fill="black" stroke="black" points="805.85,-412.06 814.64,-418.61 807.69,-415.36 810.71,-420.8 810.71,-420.8 810.71,-420.8 807.69,-415.36 806.77,-422.98 805.85,-412.06"/>
<text text-anchor="middle" x="869.38" y="-432.2" font-family="Times,serif" font-size="14.00"><a xlink:href='http://sbols.org/v3#hasFeature'>sbol:hasFeature</a></text>
</g>
<!-- ns2_seq -->
<g id="node8" class="node">
<title>ns2_seq</title>
<polygon fill="none" stroke="black" points="786.38,-90 786.38,-156.5 945.62,-156.5 945.62,-90 786.38,-90"/>
<text text-anchor="start" x="797.38" y="-140.2" font-family="Times,serif" font-weight="bold" text-decoration="underline" font-size="14.00"><a xlink:href='http://sbolstandard.org/testfiles/seq'>ns2:seq</a> (<a xlink:href='http://sbols.org/v3#Sequence'>sbol:Sequence</a>)</text>
<polyline fill="none" stroke="black" points="786.38,-132 945.62,-132"/>
<text text-anchor="start" x="794.38" y="-114.7" font-family="Times,serif" font-size="14.00"><a xlink:href='http://sbols.org/v3#displayId'>sbol:displayId</a> = seq</text>
<text text-anchor="start" x="794.38" y="-98.2" font-family="Times,serif" font-size="14.00"><a xlink:href='http://sbols.org/v3#elements'>sbol:elements</a> = atgnnntaa</text>
</g>
<!-- ns2_parent&#45;&gt;ns2_seq -->
<g id="edge6" class="edge">
<title>ns2_parent&#45;&gt;ns2_seq</title>
<path fill="none" stroke="black" d="M917.72,-488.56C931.3,-425.82 954.21,-283.12 912,-174.5 910.84,-171.5 909.4,-168.58 907.76,-165.74"/>
<polygon fill="black" stroke="black" points="902.21,-157.47 911.52,-163.27 904.32,-160.61 907.78,-165.77 907.78,-165.77 907.78,-165.77 904.32,-160.61 904.05,-168.28 902.21,-157.47"/>
<text text-anchor="middle" x="984" y="-313.2" font-family="Times,serif" font-size="14.00"><a xlink:href='http://sbols.org/v3#hasSequence'>sbol:hasSequence</a></text>
</g>
<!-- ns2_parent&#45;&gt;ns7_testfiles -->
<g id="edge18" class="edge">
<title>ns2_parent&#45;&gt;ns7_testfiles</title>
<path fill="none" stroke="black" d="M855.23,-488.31C837.74,-479.15 817.98,-469.92 799,-463.5 712.18,-434.13 611,-470.4 611,-378.75 611,-378.75 611,-378.75 611,-122.25 611,-91.81 589.5,-63.9 570.16,-44.97"/>
<polygon fill="black" stroke="black" points="562.97,-38.25 573.35,-41.79 565.73,-40.83 570.28,-45.08 570.28,-45.08 570.28,-45.08 565.73,-40.83 567.21,-48.36 562.97,-38.25"/>
<text text-anchor="middle" x="664.62" y="-245.45" font-family="Times,serif" font-size="14.00"><a xlink:href='http://sbols.org/v3#hasNamespace'>sbol:hasNamespace</a></text>
</g>
<!-- ns2_parent&#45;&gt;ns8_0000251 -->
<g id="edge19" class="edge">
<title>ns2_parent&#45;&gt;ns8_0000251</title>
<path fill="none" stroke="black" d="M954.25,-488.33C990.04,-462.31 1039.7,-426.25 1072,-402.72"/>
<polygon fill="black" stroke="black" points="1080.11,-396.84 1074.65,-406.35 1077.05,-399.06 1072.01,-402.71 1072.01,-402.71 1072.01,-402.71 1077.05,-399.06 1069.37,-399.07 1080.11,-396.84"/>
<text text-anchor="middle" x="1054.8" y="-432.2" font-family="Times,serif" font-size="14.00"><a xlink:href='http://sbols.org/v3#type'>sbol:type</a></text>
</g>
<!-- ns3_Association1&#45;&gt;ns2_api -->
<g id="edge7" class="edge">
<title>ns3_Association1&#45;&gt;ns2_api</title>
<path fill="none" stroke="black" d="M403.77,-632.13C381.52,-618.93 352.71,-601.84 324.5,-585.09"/>
<polygon fill="black" stroke="black" points="316.01,-580.06 326.91,-581.28 319.26,-581.99 324.61,-585.16 324.61,-585.16 324.61,-585.16 319.26,-581.99 322.32,-589.03 316.01,-580.06"/>
<text text-anchor="middle" x="399.88" y="-600.7" font-family="Times,serif" font-size="14.00"><a xlink:href='http://www.w3.org/ns/prov#agent'>prov:agent</a></text>
</g>
<!-- ns2_plan -->
<g id="node9" class="node">
<title>ns2_plan</title>
<polygon fill="none" stroke="black" points="428.5,-480 428.5,-563 789.5,-563 789.5,-480 428.5,-480"/>
<text text-anchor="start" x="504.37" y="-546.7" font-family="Times,serif" font-weight="bold" text-decoration="underline" font-size="14.00"><a xlink:href='http://sbolstandard.org/testfiles/plan'>ns2:plan</a> (<a xlink:href='http://sbols.org/v3#TopLevel'>sbol:TopLevel</a>, <a xlink:href='http://www.w3.org/ns/prov#Plan'>prov:Plan</a>)</text>
<polyline fill="none" stroke="black" points="428.5,-538.5 789.5,-538.5"/>
<text text-anchor="start" x="436.5" y="-520.7" font-family="Times,serif" font-size="14.00"><a xlink:href='http://example.org/my_vis#enzyme_name'>ns1:enzyme_name</a> = EcoRI</text>
<text text-anchor="start" x="436.5" y="-504.2" font-family="Times,serif" font-size="14.00"><a xlink:href='http://sbols.org/v3#description'>sbol:description</a> = Will contain fields describing position of cut</text>
<text text-anchor="start" x="436.5" y="-487.7" font-family="Times,serif" font-size="14.00"><a xlink:href='http://sbols.org/v3#displayId'>sbol:displayId</a> = plan</text>
</g>
<!-- ns3_Association1&#45;&gt;ns2_plan -->
<g id="edge8" class="edge">
<title>ns3_Association1&#45;&gt;ns2_plan</title>
<path fill="none" stroke="black" d="M473.5,-632.13C494.82,-614.88 524.33,-591.01 550.37,-569.94"/>
<polygon fill="black" stroke="black" points="558.1,-563.69 553.16,-573.47 555.16,-566.06 550.33,-569.97 550.33,-569.97 550.33,-569.97 555.16,-566.06 547.5,-566.48 558.1,-563.69"/>
<text text-anchor="middle" x="547" y="-600.7" font-family="Times,serif" font-size="14.00"><a xlink:href='http://www.w3.org/ns/prov#hadPlan'>prov:hadPlan</a></text>
</g>
<!-- ns3_Association1&#45;&gt;sbol_design -->
<g id="edge20" class="edge">
<title>ns3_Association1&#45;&gt;sbol_design</title>
<path fill="none" stroke="black" d="M601.68,-632.91C604.47,-632.6 607.25,-632.29 610,-632 668.25,-625.8 817.78,-633.55 873,-614 885.03,-609.74 884.63,-602.18 896.5,-597.5 950.15,-576.34 974.98,-608.2 1025,-579.5 1037.3,-572.42 1047.6,-560.49 1055.1,-549.37"/>
<polygon fill="black" stroke="black" points="1060.45,-540.98 1058.87,-551.83 1058.41,-544.17 1055.07,-549.41 1055.07,-549.41 1055.07,-549.41 1058.41,-544.17 1051.28,-546.99 1060.45,-540.98"/>
<text text-anchor="middle" x="932.75" y="-600.7" font-family="Times,serif" font-size="14.00"><a xlink:href='http://www.w3.org/ns/prov#hadRole'>prov:hadRole</a></text>
</g>
<!-- ns3_Usage1&#45;&gt;ns2_parent -->
<g id="edge9" class="edge">
<title>ns3_Usage1&#45;&gt;ns2_parent</title>
<path fill="none" stroke="black" d="M770.82,-632.17C782.77,-621.36 797.28,-608.55 810.75,-597.5 825.54,-585.36 841.99,-572.64 857.17,-561.19"/>
<polygon fill="black" stroke="black" points="864.96,-555.35 859.66,-564.95 861.94,-557.62 856.96,-561.35 856.96,-561.35 856.96,-561.35 861.94,-557.62 854.26,-557.74 864.96,-555.35"/>
<text text-anchor="middle" x="839.62" y="-600.7" font-family="Times,serif" font-size="14.00"><a xlink:href='http://www.w3.org/ns/prov#entity'>prov:entity</a></text>
</g>
<!-- ns3_Usage1&#45;&gt;sbol_design -->
<g id="edge21" class="edge">
<title>ns3_Usage1&#45;&gt;sbol_design</title>
<path fill="none" stroke="black" d="M871.12,-642.86C905.36,-636.63 941.85,-627.47 974,-614 985.77,-609.07 986.94,-604.66 997.5,-597.5 1009.6,-589.3 1014.2,-589.36 1025,-579.5 1034.9,-570.44 1044.3,-559.06 1052,-548.86"/>
<polygon fill="black" stroke="black" points="1057.78,-540.91 1055.54,-551.64 1055.56,-543.96 1051.9,-548.99 1051.9,-548.99 1051.9,-548.99 1055.56,-543.96 1048.26,-546.35 1057.78,-540.91"/>
<text text-anchor="middle" x="1033.8" y="-600.7" font-family="Times,serif" font-size="14.00"><a xlink:href='http://www.w3.org/ns/prov#hadRole'>prov:hadRole</a></text>
</g>
<!-- ns6_Range1 -->
<g id="node10" class="node">
<title>ns6_Range1</title>
<polygon fill="none" stroke="black" points="736.62,-209 736.62,-292 897.38,-292 897.38,-209 736.62,-209"/>
<text text-anchor="start" x="744.62" y="-275.7" font-family="Times,serif" font-weight="bold" text-decoration="underline" font-size="14.00"><a xlink:href='http://sbolstandard.org/testfiles/parent/SO:00016871/Range1'>ns6:Range1</a> (<a xlink:href='http://sbols.org/v3#Range'>sbol:Range</a>)</text>
<polyline fill="none" stroke="black" points="736.62,-267.5 897.38,-267.5"/>
<text text-anchor="start" x="750.25" y="-249.7" font-family="Times,serif" font-size="14.00"><a xlink:href='http://sbols.org/v3#displayId'>sbol:displayId</a> = Range1</text>
<text text-anchor="start" x="750.25" y="-233.2" font-family="Times,serif" font-size="14.00"><a xlink:href='http://sbols.org/v3#end'>sbol:end</a> = 10</text>
<text text-anchor="start" x="750.25" y="-216.7" font-family="Times,serif" font-size="14.00"><a xlink:href='http://sbols.org/v3#start'>sbol:start</a> = 0</text>
</g>
<!-- ns5_00016871&#45;&gt;ns6_Range1 -->
<g id="edge11" class="edge">
<title>ns5_00016871&#45;&gt;ns6_Range1</title>
<path fill="none" stroke="black" d="M795.77,-344.77C797.85,-333.73 800.3,-321.3 802.75,-310 803.29,-307.5 803.86,-304.94 804.45,-302.37"/>
<polygon fill="black" stroke="black" points="806.64,-292.91 808.77,-303.67 805.79,-296.59 804.39,-302.65 804.39,-302.65 804.39,-302.65 805.79,-296.59 800,-301.63 806.64,-292.91"/>
<text text-anchor="middle" x="848.12" y="-313.2" font-family="Times,serif" font-size="14.00"><a xlink:href='http://sbols.org/v3#hasLocation'>sbol:hasLocation</a></text>
</g>
<!-- ns2_seq&#45;&gt;ns7_testfiles -->
<g id="edge23" class="edge">
<title>ns2_seq&#45;&gt;ns7_testfiles</title>
<path fill="none" stroke="black" d="M786.25,-97.24C725.54,-78.19 643.76,-52.54 591.45,-36.14"/>
<polygon fill="black" stroke="black" points="581.91,-33.15 592.8,-31.84 585.52,-34.28 591.45,-36.14 591.45,-36.14 591.45,-36.14 585.52,-34.28 590.11,-40.43 581.91,-33.15"/>
<text text-anchor="middle" x="756.62" y="-58.7" font-family="Times,serif" font-size="14.00"><a xlink:href='http://sbols.org/v3#hasNamespace'>sbol:hasNamespace</a></text>
</g>
<!-- ns9_format_1207 -->
<g id="node14" class="node">
<title>ns9_format_1207</title>
<polygon fill="none" stroke="black" points="1193.5,-0.5 1193.5,-37.5 1302.5,-37.5 1302.5,-0.5 1193.5,-0.5"/>
<text text-anchor="middle" x="1248" y="-13.95" font-family="Times,serif" font-size="14.00"><a xlink:href='https://identifiers.org/edam:format_1207'>ns9:format_1207</a></text>
</g>
<!-- ns2_seq&#45;&gt;ns9_format_1207 -->
<g id="edge24" class="edge">
<title>ns2_seq&#45;&gt;ns9_format_1207</title>
<path fill="none" stroke="black" d="M946.08,-100.82C1016.3,-82.01 1117.2,-55 1182.7,-37.48"/>
<polygon fill="black" stroke="black" points="1192.12,-34.96 1183.63,-41.89 1188.47,-35.94 1182.46,-37.54 1182.46,-37.54 1182.46,-37.54 1188.47,-35.94 1181.3,-33.2 1192.12,-34.96"/>
<text text-anchor="middle" x="1150.9" y="-58.7" font-family="Times,serif" font-size="14.00"><a xlink:href='http://sbols.org/v3#encoding'>sbol:encoding</a></text>
</g>
<!-- ns2_plan&#45;&gt;ns5_00016871 -->
<g id="edge10" class="edge">
<title>ns2_plan&#45;&gt;ns5_00016871</title>
<path fill="none" stroke="black" d="M658.53,-480.03C678.37,-463.98 701.52,-445.46 722.75,-429 727.62,-425.22 732.72,-421.32 737.83,-417.45"/>
<polygon fill="black" stroke="black" points="745.45,-411.69 740.18,-421.31 742.43,-413.97 737.47,-417.72 737.47,-417.72 737.47,-417.72 742.43,-413.97 734.76,-414.13 745.45,-411.69"/>
<text text-anchor="middle" x="766.62" y="-432.2" font-family="Times,serif" font-size="14.00"><a xlink:href='http://example.org/my_vis#cut_position'>ns1:cut_position</a></text>
</g>
<!-- ns2_plan&#45;&gt;ns7_testfiles -->
<g id="edge22" class="edge">
<title>ns2_plan&#45;&gt;ns7_testfiles</title>
<path fill="none" stroke="black" d="M534.37,-480.05C500.55,-455.84 468,-421.44 468,-378.75 468,-378.75 468,-378.75 468,-122.25 468,-91.66 489.8,-63.78 509.41,-44.88"/>
<polygon fill="black" stroke="black" points="516.71,-38.18 512.39,-48.25 513.93,-40.73 509.35,-44.94 509.35,-44.94 509.35,-44.94 513.93,-40.73 506.3,-41.62 516.71,-38.18"/>
<text text-anchor="middle" x="521.62" y="-245.45" font-family="Times,serif" font-size="14.00"><a xlink:href='http://sbols.org/v3#hasNamespace'>sbol:hasNamespace</a></text>
</g>
<!-- ns6_Range1&#45;&gt;ns2_seq -->
<g id="edge12" class="edge">
<title>ns6_Range1&#45;&gt;ns2_seq</title>
<path fill="none" stroke="black" d="M810.63,-209.07C810.35,-197.54 811.58,-185.21 816,-174.5 817.3,-171.36 818.89,-168.31 820.71,-165.37"/>
<polygon fill="black" stroke="black" points="826.47,-157.37 824.28,-168.11 824.26,-160.44 820.63,-165.49 820.63,-165.49 820.63,-165.49 824.26,-160.44 816.97,-162.86 826.47,-157.37"/>
<text text-anchor="middle" x="864" y="-177.7" font-family="Times,serif" font-size="14.00"><a xlink:href='http://sbols.org/v3#hasSequence'>sbol:hasSequence</a></text>
</g>
</g>
</svg>
